<?xml version="1.0" encoding="utf-8"?>
<!-- Generator: Adobe Illustrator 19.2.1, SVG Export Plug-In . SVG Version: 6.00 Build 0)  -->
<svg version="1.1" id="main" xmlns="http://www.w3.org/2000/svg" xmlns:xlink="http://www.w3.org/1999/xlink" x="0px" y="0px"
	 width="992px" height="800px" viewBox="0 0 992 800" style="enable-background:new 0 0 992 800;" xml:space="preserve">
<style type="text/css">
	.st0{fill:none;stroke:#9D182F;stroke-width:10;stroke-miterlimit:10;}
	.st1{fill:#9D182F;stroke:#9D182F;stroke-linecap:round;stroke-miterlimit:10;}
	.st2{fill:#FFFFFF;}
	.st3{font-family:'MyriadPro-Regular';}
	.st4{font-size:15px;}
  
  #desktop { display:none; }
  #mobile { display:none; }
  
  @media (min-width: 1024px) {
    #desktop { display:block; }
  }
  @media (max-width: 1023px) {
    #mobile { display:block; }
  }
</style>
<g id="bcontainer">
<line class="st0" x1="482.7" y1="15" x2="482.7" y2="785"/>
<line class="st0" x1="462.2" y1="785" x2="503.2" y2="785"/>
<line class="st0" x1="462.2" y1="15" x2="503.2" y2="15"/>
<circle id="punkt01" class="st1" cx="482.2" cy="130" r="25.5"/>
<circle id="punkt03" class="st1" cx="482.7" cy="613.5" r="25.5"/>
<circle id="punkt02" class="st1" cx="482.7" cy="391" r="25.5"/>
<text transform="matrix(1 0 0 1 269.2596 133.0002)" class="st2 st3 st4">Special mention GDA 2015</text>
<text transform="matrix(1 0 0 1 261.0548 617.6498)" class="st2 st3 st4">Red Dot Design Award 2014</text>
<g id="box3">
	<rect id="box_2_" x="550.2" y="533" class="st1" width="422.4" height="245"/>
	<polygon id="trekant_2_" class="st1" points="531,614.6 552.8,631.3 552.8,598 	"/>
	<g>
		<text transform="matrix(1 0 0 1 572.6667 564.5997)"><tspan x="0" y="0" class="st2 st3 st4">The Red Dot Design Award is an international product design</tspan><tspan x="0" y="18" class="st2 st3 st4">and communication design prize awarded by the Design</tspan><tspan x="0" y="36" class="st2 st3 st4">Zentrum Nordrhein Westfalen in Essen, Germany. There are</tspan><tspan x="0" y="54" class="st2 st3 st4">prize categories for product design, design agencies, and</tspan><tspan x="0" y="72" class="st2 st3 st4">design concepts. Since 1955, designers and producers can</tspan><tspan x="0" y="90" class="st2 st3 st4">apply for the prizes with the winners being presented in an</tspan><tspan x="0" y="108" class="st2 st3 st4">annual ceremony. Winning products are presented in the </tspan><tspan x="0" y="126" class="st2 st3 st4">Red Dot Design Museum on the premises of the historical </tspan><tspan x="0" y="144" class="st2 st3 st4">Zollverein Coal Mine Industrial Complex in Essen. In 2013, </tspan><tspan x="0" y="162" class="st2 st3 st4">the Red Dot Design Museum Taipei was opened. </tspan><tspan x="0" y="180" class="st2 st3 st4">The Red Dot Design Award had more than 15,500 submissions </tspan><tspan x="0" y="198" class="st2 st3 st4">from 70 countries in 2014.</tspan></text>
	</g>
</g>
<g id="desktop">
	<text transform="matrix(1 0 0 1 523.666 395.6668)" class="st2 st3 st4">iF Product Design Award 2014</text>
	<g class="box2">
		<rect id="box_1_" x="8.7" y="281.5" class="st1" width="402" height="153.8"/>
		<polygon id="trekant_1_" class="st1" points="436.3,388.6 409.7,373.2 409.7,404 		"/>
		<g>
			<text transform="matrix(1 0 0 1 28.6081 318.6441)"><tspan x="0" y="0" class="st2 st3 st4">The If Product Design Award was introduced in 1954 and</tspan><tspan x="0" y="18" class="st2 st3 st4">is annually conferred by the iF International Forum Design.</tspan><tspan x="0" y="36" class="st2 st3 st4">Every year the iF attracts more than 2,000 products entries</tspan><tspan x="0" y="54" class="st2 st3 st4">from around 37 nations, which are judged by renowned</tspan><tspan x="0" y="72" class="st2 st3 st4">experts, with the best of the receiving an iF seal of gold</tspan><tspan x="0" y="90" class="st2 st3 st4">award, known as the “Design Oscar”.</tspan></text>
		</g>
	</g>
</g>
<g id="box1">
	<rect id="box" x="554.7" y="56.4" class="st1" width="417.9" height="164.6"/>
	<polygon id="trekant" class="st1" points="531.3,131.8 558,147.1 558,116.4 	"/>
	<text transform="matrix(1 0 0 1 572.6667 91.5001)"><tspan x="0" y="0" class="st2 st3 st4">The German Design Award directly contributes to the overall</tspan><tspan x="0" y="18" class="st2 st3 st4">commercial success. Prizes will only be awared to projects that</tspan><tspan x="0" y="36" class="st2 st3 st4">truly represent pioneering contributions to the German and</tspan><tspan x="0" y="54" class="st2 st3 st4">international design landscape. The highly esteemed,</tspan><tspan x="0" y="72" class="st2 st3 st4">international jury of experts guarantees this. The German</tspan><tspan x="0" y="90" class="st2 st3 st4">Design Award identifies the present unique design trends:</tspan><tspan x="0" y="108" class="st2 st3 st4">a competition that advances the design-oriented scene.</tspan></text>
</g>
<g id="mobile">
	<text transform="matrix(1 0 0 1 247.9447 395.6668)" class="st2 st3 st4">iF Product Design Award 2014</text>
	<g class="box2">
		<rect id="box_3_" x="555" y="281.5" class="st1" width="419.9" height="153.8"/>
		<polygon id="trekant_3_" class="st1" points="556,404 556,373.2 529.4,388.6 		"/>
		<g>
			<text transform="matrix(1 0 0 1 572.6667 318.6441)"><tspan x="0" y="0" class="st2 st3 st4">The If Product Design Award was introduced in 1954 and</tspan><tspan x="0" y="18" class="st2 st3 st4">is annually conferred by the iF International Forum Design.</tspan><tspan x="0" y="36" class="st2 st3 st4">Every year the iF attracts more than 2,000 products entries</tspan><tspan x="0" y="54" class="st2 st3 st4">from around 37 nations, which are judged by renowned</tspan><tspan x="0" y="72" class="st2 st3 st4">experts, with the best of the receiving an iF seal of gold</tspan><tspan x="0" y="90" class="st2 st3 st4">award, known as the “Design Oscar”.</tspan></text>
		</g>
	</g>
</g>
</g>
</svg>
