<?xml version="1.0" encoding="utf-8"?>
<!-- Generator: Adobe Illustrator 19.2.1, SVG Export Plug-In . SVG Version: 6.00 Build 0)  -->
<svg version="1.1" id="Layer_1" xmlns="http://www.w3.org/2000/svg" xmlns:xlink="http://www.w3.org/1999/xlink" x="0px" y="0px"
	 width="640px" height="1136px" viewBox="0 0 640 1136" style="enable-background:new 0 0 640 1136;" xml:space="preserve">
<style type="text/css">
	.st0{fill:none;stroke:#9D182F;stroke-width:10;stroke-miterlimit:10;}
	.st1{fill:#9D182F;stroke:#9D182F;stroke-linecap:round;stroke-miterlimit:10;}
	.st2{font-family:'MyriadPro-Regular';}
	.st3{font-size:15px;}
	.st4{fill:none;}
	.st5{fill:#FFFFFF;}
	.st6{letter-spacing:6;}
	.st7{letter-spacing:3;}
</style>
<line class="st0" x1="54" y1="28.4" x2="54" y2="1102.6"/>
<line class="st0" x1="25.4" y1="28.4" x2="82.6" y2="28.4"/>
<circle id="punkt01" class="st1" cx="53.3" cy="188.8" r="35.6"/>
<circle id="punkt03" class="st1" cx="54" cy="863.4" r="35.6"/>
<circle id="punkt02" class="st1" cx="53.3" cy="526.1" r="35.6"/>
<line class="st0" x1="25.4" y1="1102.6" x2="82.6" y2="1102.6"/>
<g id="box01">
	<rect id="box" x="125.3" y="117.5" class="st1" width="452.7" height="163.6"/>
	<polygon id="trekant" class="st1" points="104.7,183.8 128.2,197.3 128.2,170.3 	"/>
</g>
<g id="box01_1_">
	<rect id="box_1_" x="126" y="463.3" class="st1" width="452.7" height="162.7"/>
	<polygon id="trekant_1_" class="st1" points="105.4,529.5 128.8,543.1 128.8,516 	"/>
</g>
<g id="box01_2_">
	<rect id="box_2_" x="135.6" y="800.8" class="st1" width="452.7" height="186.3"/>
	<polygon id="trekant_2_" class="st1" points="115,867 138.4,880.5 138.4,853.5 	"/>
</g>
<text transform="matrix(1 0 0 1 72.726 93.3973)" class="st2 st3">Special mention GDA 2015</text>
<text transform="matrix(1 0 0 1 72.726 437.3835)" class="st2 st3">iF Product Design Award 2014</text>
<text transform="matrix(1 0 0 1 72.726 778.0679)" class="st2 st3">Red Dot Design Award 2014</text>
<rect x="137.9" y="134.6" class="st4" width="428.8" height="169.3"/>
<text transform="matrix(1 0 0 1 137.9152 145.2392)" class="st5 st2 st3">The</text>
<text transform="matrix(1 0 0 1 161.2152 145.2392)" class="st5 st2 st3 st6"> </text>
<text transform="matrix(1 0 0 1 170.7152 145.2392)" class="st5 st2 st3">German</text>
<text transform="matrix(1 0 0 1 220.9152 145.2392)" class="st5 st2 st3 st6"> </text>
<text transform="matrix(1 0 0 1 230.4152 145.2392)" class="st5 st2 st3">Design</text>
<text transform="matrix(1 0 0 1 274.1152 145.2392)" class="st5 st2 st3 st6"> </text>
<text transform="matrix(1 0 0 1 283.6152 145.2392)" class="st5 st2 st3">Award</text>
<text transform="matrix(1 0 0 1 324.4152 145.2392)" class="st5 st2 st3 st6"> </text>
<text transform="matrix(1 0 0 1 333.9152 145.2392)" class="st5 st2 st3">directly</text>
<text transform="matrix(1 0 0 1 380.6152 145.2392)" class="st5 st2 st3 st6"> </text>
<text transform="matrix(1 0 0 1 390.1152 145.2392)" class="st5 st2 st3">contributes</text>
<text transform="matrix(1 0 0 1 462.0152 145.2392)" class="st5 st2 st3 st6"> </text>
<text transform="matrix(1 0 0 1 471.5152 145.2392)" class="st5 st2 st3">to</text>
<text transform="matrix(1 0 0 1 484.7152 145.2392)" class="st5 st2 st3 st6"> </text>
<text transform="matrix(1 0 0 1 494.2152 145.2392)" class="st5 st2 st3">the</text>
<text transform="matrix(1 0 0 1 515.0152 145.2392)" class="st5 st2 st3 st6"> </text>
<text transform="matrix(1 0 0 1 524.5152 145.2392)" class="st5 st2 st3">overall  </text>
<text transform="matrix(1 0 0 1 137.9152 163.2392)" class="st5 st2 st3">commercial</text>
<text transform="matrix(1 0 0 1 211.3152 163.2392)" class="st5 st2 st3"> </text>
<text transform="matrix(1 0 0 1 214.4152 163.2392)" class="st5 st2 st3">success.</text>
<text transform="matrix(1 0 0 1 264.6152 163.2392)" class="st5 st2 st3"> </text>
<text transform="matrix(1 0 0 1 267.7152 163.2392)" class="st5 st2 st3">Prizes</text>
<text transform="matrix(1 0 0 1 304.0152 163.2392)" class="st5 st2 st3"> </text>
<text transform="matrix(1 0 0 1 307.1152 163.2392)" class="st5 st2 st3">will</text>
<text transform="matrix(1 0 0 1 328.8152 163.2392)" class="st5 st2 st3"> </text>
<text transform="matrix(1 0 0 1 331.9152 163.2392)" class="st5 st2 st3">only</text>
<text transform="matrix(1 0 0 1 359.1152 163.2392)" class="st5 st2 st3"> </text>
<text transform="matrix(1 0 0 1 362.2152 163.2392)" class="st5 st2 st3">be</text>
<text transform="matrix(1 0 0 1 378.2152 163.2392)" class="st5 st2 st3"> </text>
<text transform="matrix(1 0 0 1 381.4152 163.2392)" class="st5 st2 st3">awarded</text>
<text transform="matrix(1 0 0 1 436.2152 163.2392)" class="st5 st2 st3"> </text>
<text transform="matrix(1 0 0 1 439.4152 163.2392)" class="st5 st2 st3">to</text>
<text transform="matrix(1 0 0 1 452.6152 163.2392)" class="st5 st2 st3"> </text>
<text transform="matrix(1 0 0 1 455.7152 163.2392)" class="st5 st2 st3">projects</text>
<text transform="matrix(1 0 0 1 506.2152 163.2392)" class="st5 st2 st3"> </text>
<text transform="matrix(1 0 0 1 509.3152 163.2392)" class="st5 st2 st3">that</text>
<text transform="matrix(1 0 0 1 534.8152 163.2392)" class="st5 st2 st3"> </text>
<text transform="matrix(1 0 0 1 537.9152 163.2392)" class="st5 st2 st3">truly </text>
<text transform="matrix(1 0 0 1 137.9152 181.2392)" class="st5 st2 st3">represent</text>
<text transform="matrix(1 0 0 1 198.0152 181.2392)" class="st5 st2 st3"> </text>
<text transform="matrix(1 0 0 1 201.8152 181.2392)" class="st5 st2 st3">pioneering</text>
<text transform="matrix(1 0 0 1 270.6152 181.2392)" class="st5 st2 st3"> </text>
<text transform="matrix(1 0 0 1 274.4152 181.2392)" class="st5 st2 st3">contributions</text>
<text transform="matrix(1 0 0 1 358.8152 181.2392)" class="st5 st2 st3"> </text>
<text transform="matrix(1 0 0 1 362.6152 181.2392)" class="st5 st2 st3">to</text>
<text transform="matrix(1 0 0 1 375.8152 181.2392)" class="st5 st2 st3"> </text>
<text transform="matrix(1 0 0 1 379.7152 181.2392)" class="st5 st2 st3">the</text>
<text transform="matrix(1 0 0 1 400.5152 181.2392)" class="st5 st2 st3"> </text>
<text transform="matrix(1 0 0 1 404.3152 181.2392)" class="st5 st2 st3">German</text>
<text transform="matrix(1 0 0 1 454.5152 181.2392)" class="st5 st2 st3"> </text>
<text transform="matrix(1 0 0 1 458.3152 181.2392)" class="st5 st2 st3">and</text>
<text transform="matrix(1 0 0 1 482.3152 181.2392)" class="st5 st2 st3"> </text>
<text transform="matrix(1 0 0 1 486.1152 181.2392)" class="st5 st2 st3">international </text>
<text transform="matrix(1 0 0 1 137.9152 199.2392)" class="st5 st2 st3">design</text>
<text transform="matrix(1 0 0 1 180.0152 199.2392)" class="st5 st2 st3"> </text>
<text transform="matrix(1 0 0 1 183.7152 199.2392)" class="st5 st2 st3">landscape.</text>
<text transform="matrix(1 0 0 1 250.3152 199.2392)" class="st5 st2 st3"> </text>
<text transform="matrix(1 0 0 1 253.9152 199.2392)" class="st5 st2 st3">The</text>
<text transform="matrix(1 0 0 1 277.2152 199.2392)" class="st5 st2 st3"> </text>
<text transform="matrix(1 0 0 1 280.9152 199.2392)" class="st5 st2 st3">highly</text>
<text transform="matrix(1 0 0 1 320.0152 199.2392)" class="st5 st2 st3"> </text>
<text transform="matrix(1 0 0 1 323.7152 199.2392)" class="st5 st2 st3">esteemed,</text>
<text transform="matrix(1 0 0 1 388.7152 199.2392)" class="st5 st2 st3"> </text>
<text transform="matrix(1 0 0 1 392.3152 199.2392)" class="st5 st2 st3">international</text>
<text transform="matrix(1 0 0 1 472.9152 199.2392)" class="st5 st2 st3"> </text>
<text transform="matrix(1 0 0 1 476.6152 199.2392)" class="st5 st2 st3">jury</text>
<text transform="matrix(1 0 0 1 500.4152 199.2392)" class="st5 st2 st3"> </text>
<text transform="matrix(1 0 0 1 504.1152 199.2392)" class="st5 st2 st3">of</text>
<text transform="matrix(1 0 0 1 516.7152 199.2392)" class="st5 st2 st3"> </text>
<text transform="matrix(1 0 0 1 520.3152 199.2392)" class="st5 st2 st3">experts </text>
<text transform="matrix(1 0 0 1 137.9152 217.2392)" class="st5 st2 st3">guarantess</text>
<text transform="matrix(1 0 0 1 206.6152 217.2392)" class="st5 st2 st3"> </text>
<text transform="matrix(1 0 0 1 212.1152 217.2392)" class="st5 st2 st3">this.</text>
<text transform="matrix(1 0 0 1 238.0152 217.2392)" class="st5 st2 st3"> </text>
<text transform="matrix(1 0 0 1 243.5152 217.2392)" class="st5 st2 st3">The</text>
<text transform="matrix(1 0 0 1 266.8152 217.2392)" class="st5 st2 st3"> </text>
<text transform="matrix(1 0 0 1 272.3152 217.2392)" class="st5 st2 st3">German</text>
<text transform="matrix(1 0 0 1 322.5152 217.2392)" class="st5 st2 st3"> </text>
<text transform="matrix(1 0 0 1 328.0152 217.2392)" class="st5 st2 st3">Design</text>
<text transform="matrix(1 0 0 1 371.7152 217.2392)" class="st5 st2 st3"> </text>
<text transform="matrix(1 0 0 1 377.2152 217.2392)" class="st5 st2 st3">Award</text>
<text transform="matrix(1 0 0 1 418.0152 217.2392)" class="st5 st2 st3"> </text>
<text transform="matrix(1 0 0 1 423.6152 217.2392)" class="st5 st2 st3">identifies</text>
<text transform="matrix(1 0 0 1 481.2152 217.2392)" class="st5 st2 st3"> </text>
<text transform="matrix(1 0 0 1 486.7152 217.2392)" class="st5 st2 st3">the</text>
<text transform="matrix(1 0 0 1 507.5152 217.2392)" class="st5 st2 st3"> </text>
<text transform="matrix(1 0 0 1 513.0152 217.2392)" class="st5 st2 st3">presenst </text>
<text transform="matrix(1 0 0 1 137.9152 235.2392)" class="st5 st2 st3">unique</text>
<text transform="matrix(1 0 0 1 182.2152 235.2392)" class="st5 st2 st3 st7"> </text>
<text transform="matrix(1 0 0 1 190.7152 235.2392)" class="st5 st2 st3">design</text>
<text transform="matrix(1 0 0 1 232.8152 235.2392)" class="st5 st2 st3 st7"> </text>
<text transform="matrix(1 0 0 1 241.3152 235.2392)" class="st5 st2 st3">trends:</text>
<text transform="matrix(1 0 0 1 284.5152 235.2392)" class="st5 st2 st3 st7"> </text>
<text transform="matrix(1 0 0 1 293.0152 235.2392)" class="st5 st2 st3">a</text>
<text transform="matrix(1 0 0 1 300.2152 235.2392)" class="st5 st2 st3 st7"> </text>
<text transform="matrix(1 0 0 1 308.7152 235.2392)" class="st5 st2 st3">competition</text>
<text transform="matrix(1 0 0 1 385.7152 235.2392)" class="st5 st2 st3 st7"> </text>
<text transform="matrix(1 0 0 1 394.2152 235.2392)" class="st5 st2 st3">that</text>
<text transform="matrix(1 0 0 1 419.7152 235.2392)" class="st5 st2 st3 st7"> </text>
<text transform="matrix(1 0 0 1 428.1152 235.2392)" class="st5 st2 st3">advances</text>
<text transform="matrix(1 0 0 1 486.8152 235.2392)" class="st5 st2 st3 st7"> </text>
<text transform="matrix(1 0 0 1 495.3152 235.2392)" class="st5 st2 st3">the</text>
<text transform="matrix(1 0 0 1 516.1152 235.2392)" class="st5 st2 st3 st7"> </text>
<text transform="matrix(1 0 0 1 524.5152 235.2392)" class="st5 st2 st3">design  </text>
<text transform="matrix(1 0 0 1 137.9152 253.2392)" class="st5 st2 st3">oriented scene. </text>
<rect x="151.7" y="484.3" class="st4" width="416" height="146"/>
<text transform="matrix(1 0 0 1 151.6665 494.9839)" class="st5 st2 st3">The</text>
<text transform="matrix(1 0 0 1 174.9665 494.9839)" class="st5 st2 st3 st7"> </text>
<text transform="matrix(1 0 0 1 182.7665 494.9839)" class="st5 st2 st3">iF</text>
<text transform="matrix(1 0 0 1 193.5665 494.9839)" class="st5 st2 st3 st7"> </text>
<text transform="matrix(1 0 0 1 201.4665 494.9839)" class="st5 st2 st3">Product</text>
<text transform="matrix(1 0 0 1 250.9665 494.9839)" class="st5 st2 st3 st7"> </text>
<text transform="matrix(1 0 0 1 258.7665 494.9839)" class="st5 st2 st3">Design</text>
<text transform="matrix(1 0 0 1 302.4665 494.9839)" class="st5 st2 st3 st7"> </text>
<text transform="matrix(1 0 0 1 310.2665 494.9839)" class="st5 st2 st3">Award</text>
<text transform="matrix(1 0 0 1 351.0665 494.9839)" class="st5 st2 st3 st7"> </text>
<text transform="matrix(1 0 0 1 358.8665 494.9839)" class="st5 st2 st3">was</text>
<text transform="matrix(1 0 0 1 383.0665 494.9839)" class="st5 st2 st3 st7"> </text>
<text transform="matrix(1 0 0 1 390.9665 494.9839)" class="st5 st2 st3">introduced</text>
<text transform="matrix(1 0 0 1 460.2665 494.9839)" class="st5 st2 st3 st7"> </text>
<text transform="matrix(1 0 0 1 468.0665 494.9839)" class="st5 st2 st3">in</text>
<text transform="matrix(1 0 0 1 479.9665 494.9839)" class="st5 st2 st3 st7"> </text>
<text transform="matrix(1 0 0 1 487.7665 494.9839)" class="st5 st2 st3">1954</text>
<text transform="matrix(1 0 0 1 518.5665 494.9839)" class="st5 st2 st3 st7"> </text>
<text transform="matrix(1 0 0 1 526.3665 494.9839)" class="st5 st2 st3">and</text>
<text transform="matrix(1 0 0 1 550.3665 494.9839)" class="st5 st2 st3 st7"> </text>
<text transform="matrix(1 0 0 1 558.1665 494.9839)" class="st5 st2 st3">is  </text>
<text transform="matrix(1 0 0 1 151.6665 512.9839)" class="st5 st2 st3">annually</text>
<text transform="matrix(1 0 0 1 205.1665 512.9839)" class="st5 st2 st3"> </text>
<text transform="matrix(1 0 0 1 210.9665 512.9839)" class="st5 st2 st3">conferred</text>
<text transform="matrix(1 0 0 1 271.8665 512.9839)" class="st5 st2 st3"> </text>
<text transform="matrix(1 0 0 1 277.5665 512.9839)" class="st5 st2 st3">by</text>
<text transform="matrix(1 0 0 1 293.1665 512.9839)" class="st5 st2 st3"> </text>
<text transform="matrix(1 0 0 1 298.9665 512.9839)" class="st5 st2 st3">the</text>
<text transform="matrix(1 0 0 1 319.7665 512.9839)" class="st5 st2 st3"> </text>
<text transform="matrix(1 0 0 1 325.4665 512.9839)" class="st5 st2 st3">iF</text>
<text transform="matrix(1 0 0 1 336.2665 512.9839)" class="st5 st2 st3"> </text>
<text transform="matrix(1 0 0 1 342.0665 512.9839)" class="st5 st2 st3">International</text>
<text transform="matrix(1 0 0 1 422.6665 512.9839)" class="st5 st2 st3"> </text>
<text transform="matrix(1 0 0 1 428.3665 512.9839)" class="st5 st2 st3">Forum</text>
<text transform="matrix(1 0 0 1 469.6665 512.9839)" class="st5 st2 st3"> </text>
<text transform="matrix(1 0 0 1 475.3665 512.9839)" class="st5 st2 st3">Design.</text>
<text transform="matrix(1 0 0 1 522.1665 512.9839)" class="st5 st2 st3">  </text>
<text transform="matrix(1 0 0 1 533.5665 512.9839)" class="st5 st2 st3">Every </text>
<text transform="matrix(1 0 0 1 151.6665 530.9839)" class="st5 st2 st3">year</text>
<text transform="matrix(1 0 0 1 178.3665 530.9839)" class="st5 st2 st3"> </text>
<text transform="matrix(1 0 0 1 181.2665 530.9839)" class="st5 st2 st3">the</text>
<text transform="matrix(1 0 0 1 202.0665 530.9839)" class="st5 st2 st3"> </text>
<text transform="matrix(1 0 0 1 204.8665 530.9839)" class="st5 st2 st3">iF</text>
<text transform="matrix(1 0 0 1 215.6665 530.9839)" class="st5 st2 st3"> </text>
<text transform="matrix(1 0 0 1 218.5665 530.9839)" class="st5 st2 st3">attracts</text>
<text transform="matrix(1 0 0 1 265.4665 530.9839)" class="st5 st2 st3"> </text>
<text transform="matrix(1 0 0 1 268.2665 530.9839)" class="st5 st2 st3">more</text>
<text transform="matrix(1 0 0 1 301.4665 530.9839)" class="st5 st2 st3"> </text>
<text transform="matrix(1 0 0 1 304.2665 530.9839)" class="st5 st2 st3">than</text>
<text transform="matrix(1 0 0 1 333.1665 530.9839)" class="st5 st2 st3"> </text>
<text transform="matrix(1 0 0 1 335.9665 530.9839)" class="st5 st2 st3">2,000</text>
<text transform="matrix(1 0 0 1 369.8665 530.9839)" class="st5 st2 st3"> </text>
<text transform="matrix(1 0 0 1 372.6665 530.9839)" class="st5 st2 st3">product</text>
<text transform="matrix(1 0 0 1 422.7665 530.9839)" class="st5 st2 st3"> </text>
<text transform="matrix(1 0 0 1 425.6665 530.9839)" class="st5 st2 st3">entries</text>
<text transform="matrix(1 0 0 1 468.2665 530.9839)" class="st5 st2 st3"> </text>
<text transform="matrix(1 0 0 1 471.1665 530.9839)" class="st5 st2 st3">from</text>
<text transform="matrix(1 0 0 1 501.1665 530.9839)" class="st5 st2 st3"> </text>
<text transform="matrix(1 0 0 1 503.9665 530.9839)" class="st5 st2 st3">around</text>
<text transform="matrix(1 0 0 1 549.4665 530.9839)" class="st5 st2 st3"> </text>
<text transform="matrix(1 0 0 1 552.2665 530.9839)" class="st5 st2 st3">37 </text>
<text transform="matrix(1 0 0 1 151.6665 548.9839)" class="st5 st2 st3">nations,</text>
<text transform="matrix(1 0 0 1 201.2665 548.9839)" class="st5 st2 st3"> </text>
<text transform="matrix(1 0 0 1 205.9665 548.9839)" class="st5 st2 st3">which</text>
<text transform="matrix(1 0 0 1 243.8665 548.9839)" class="st5 st2 st3"> </text>
<text transform="matrix(1 0 0 1 248.5665 548.9839)" class="st5 st2 st3">are</text>
<text transform="matrix(1 0 0 1 268.1665 548.9839)" class="st5 st2 st3"> </text>
<text transform="matrix(1 0 0 1 272.8665 548.9839)" class="st5 st2 st3">judged</text>
<text transform="matrix(1 0 0 1 317.5665 548.9839)" class="st5 st2 st3"> </text>
<text transform="matrix(1 0 0 1 322.1665 548.9839)" class="st5 st2 st3">by</text>
<text transform="matrix(1 0 0 1 337.7665 548.9839)" class="st5 st2 st3"> </text>
<text transform="matrix(1 0 0 1 342.4665 548.9839)" class="st5 st2 st3">renowned</text>
<text transform="matrix(1 0 0 1 406.7665 548.9839)" class="st5 st2 st3"> </text>
<text transform="matrix(1 0 0 1 411.4665 548.9839)" class="st5 st2 st3">experts,</text>
<text transform="matrix(1 0 0 1 460.8665 548.9839)" class="st5 st2 st3"> </text>
<text transform="matrix(1 0 0 1 465.4665 548.9839)" class="st5 st2 st3">with</text>
<text transform="matrix(1 0 0 1 493.3665 548.9839)" class="st5 st2 st3"> </text>
<text transform="matrix(1 0 0 1 497.9665 548.9839)" class="st5 st2 st3">the</text>
<text transform="matrix(1 0 0 1 518.7665 548.9839)" class="st5 st2 st3"> </text>
<text transform="matrix(1 0 0 1 523.4665 548.9839)" class="st5 st2 st3">best</text>
<text transform="matrix(1 0 0 1 550.3665 548.9839)" class="st5 st2 st3"> </text>
<text transform="matrix(1 0 0 1 555.0665 548.9839)" class="st5 st2 st3">of </text>
<text transform="matrix(1 0 0 1 151.6665 566.9839)" class="st5 st2 st3">them</text>
<text transform="matrix(1 0 0 1 184.9665 566.9839)" class="st5 st2 st3"> </text>
<text transform="matrix(1 0 0 1 188.0665 566.9839)" class="st5 st2 st3">receiving</text>
<text transform="matrix(1 0 0 1 245.6665 566.9839)" class="st5 st2 st3"> </text>
<text transform="matrix(1 0 0 1 248.7665 566.9839)" class="st5 st2 st3">an</text>
<text transform="matrix(1 0 0 1 264.3665 566.9839)" class="st5 st2 st3"> </text>
<text transform="matrix(1 0 0 1 267.4665 566.9839)" class="st5 st2 st3">iF</text>
<text transform="matrix(1 0 0 1 278.2665 566.9839)" class="st5 st2 st3"> </text>
<text transform="matrix(1 0 0 1 281.3665 566.9839)" class="st5 st2 st3">seal</text>
<text transform="matrix(1 0 0 1 305.5665 566.9839)" class="st5 st2 st3"> </text>
<text transform="matrix(1 0 0 1 308.6665 566.9839)" class="st5 st2 st3">of</text>
<text transform="matrix(1 0 0 1 321.2665 566.9839)" class="st5 st2 st3"> </text>
<text transform="matrix(1 0 0 1 324.3665 566.9839)" class="st5 st2 st3">outstanding</text>
<text transform="matrix(1 0 0 1 401.0665 566.9839)" class="st5 st2 st3"> </text>
<text transform="matrix(1 0 0 1 404.1665 566.9839)" class="st5 st2 st3">design</text>
<text transform="matrix(1 0 0 1 446.2665 566.9839)" class="st5 st2 st3"> </text>
<text transform="matrix(1 0 0 1 449.3665 566.9839)" class="st5 st2 st3">quality.</text>
<text transform="matrix(1 0 0 1 495.4665 566.9839)" class="st5 st2 st3"> </text>
<text transform="matrix(1 0 0 1 498.5665 566.9839)" class="st5 st2 st3">The</text>
<text transform="matrix(1 0 0 1 521.8665 566.9839)" class="st5 st2 st3"> </text>
<text transform="matrix(1 0 0 1 524.9665 566.9839)" class="st5 st2 st3">best</text>
<text transform="matrix(1 0 0 1 551.9665 566.9839)" class="st5 st2 st3"> </text>
<text transform="matrix(1 0 0 1 555.0665 566.9839)" class="st5 st2 st3">of </text>
<text transform="matrix(1 0 0 1 151.6665 584.9839)" class="st5 st2 st3">the</text>
<text transform="matrix(1 0 0 1 172.4665 584.9839)" class="st5 st2 st3"> </text>
<text transform="matrix(1 0 0 1 176.0665 584.9839)" class="st5 st2 st3">best</text>
<text transform="matrix(1 0 0 1 203.0665 584.9839)" class="st5 st2 st3"> </text>
<text transform="matrix(1 0 0 1 206.6665 584.9839)" class="st5 st2 st3">are</text>
<text transform="matrix(1 0 0 1 226.2665 584.9839)" class="st5 st2 st3"> </text>
<text transform="matrix(1 0 0 1 229.8665 584.9839)" class="st5 st2 st3">awarded</text>
<text transform="matrix(1 0 0 1 284.7665 584.9839)" class="st5 st2 st3"> </text>
<text transform="matrix(1 0 0 1 288.3665 584.9839)" class="st5 st2 st3">with</text>
<text transform="matrix(1 0 0 1 316.1665 584.9839)" class="st5 st2 st3"> </text>
<text transform="matrix(1 0 0 1 319.7665 584.9839)" class="st5 st2 st3">an</text>
<text transform="matrix(1 0 0 1 335.3665 584.9839)" class="st5 st2 st3"> </text>
<text transform="matrix(1 0 0 1 338.9665 584.9839)" class="st5 st2 st3">iF</text>
<text transform="matrix(1 0 0 1 349.7665 584.9839)" class="st5 st2 st3"> </text>
<text transform="matrix(1 0 0 1 353.3665 584.9839)" class="st5 st2 st3">gold</text>
<text transform="matrix(1 0 0 1 381.9665 584.9839)" class="st5 st2 st3"> </text>
<text transform="matrix(1 0 0 1 385.5665 584.9839)" class="st5 st2 st3">award,</text>
<text transform="matrix(1 0 0 1 427.5665 584.9839)" class="st5 st2 st3"> </text>
<text transform="matrix(1 0 0 1 431.1665 584.9839)" class="st5 st2 st3">known</text>
<text transform="matrix(1 0 0 1 474.1665 584.9839)" class="st5 st2 st3"> </text>
<text transform="matrix(1 0 0 1 477.7665 584.9839)" class="st5 st2 st3">as</text>
<text transform="matrix(1 0 0 1 490.9665 584.9839)" class="st5 st2 st3"> </text>
<text transform="matrix(1 0 0 1 494.5665 584.9839)" class="st5 st2 st3">the</text>
<text transform="matrix(1 0 0 1 515.3665 584.9839)" class="st5 st2 st3"> </text>
<text transform="matrix(1 0 0 1 518.9665 584.9839)" class="st5 st2 st3">&quot;Design </text>
<text transform="matrix(1 0 0 1 151.6665 602.9839)" class="st5 st2 st3">Oscar&quot;.</text>
<rect x="151.9" y="822.8" class="st4" width="420" height="152.7"/>
<text transform="matrix(1 0 0 1 151.8905 833.4353)" class="st5 st2 st3">The</text>
<text transform="matrix(1 0 0 1 175.1905 833.4353)" class="st5 st2 st3"> </text>
<text transform="matrix(1 0 0 1 179.4905 833.4353)" class="st5 st2 st3">Red</text>
<text transform="matrix(1 0 0 1 203.5905 833.4353)" class="st5 st2 st3"> </text>
<text transform="matrix(1 0 0 1 207.8905 833.4353)" class="st5 st2 st3">Dot</text>
<text transform="matrix(1 0 0 1 231.0905 833.4353)" class="st5 st2 st3"> </text>
<text transform="matrix(1 0 0 1 235.3905 833.4353)" class="st5 st2 st3">Design</text>
<text transform="matrix(1 0 0 1 278.9905 833.4353)" class="st5 st2 st3"> </text>
<text transform="matrix(1 0 0 1 283.3905 833.4353)" class="st5 st2 st3">Award</text>
<text transform="matrix(1 0 0 1 324.1905 833.4353)" class="st5 st2 st3"> </text>
<text transform="matrix(1 0 0 1 328.4905 833.4353)" class="st5 st2 st3">is</text>
<text transform="matrix(1 0 0 1 337.8905 833.4353)" class="st5 st2 st3"> </text>
<text transform="matrix(1 0 0 1 342.2905 833.4353)" class="st5 st2 st3">an</text>
<text transform="matrix(1 0 0 1 357.7905 833.4353)" class="st5 st2 st3"> </text>
<text transform="matrix(1 0 0 1 362.0905 833.4353)" class="st5 st2 st3">international</text>
<text transform="matrix(1 0 0 1 442.6905 833.4353)" class="st5 st2 st3"> </text>
<text transform="matrix(1 0 0 1 446.9905 833.4353)" class="st5 st2 st3">product</text>
<text transform="matrix(1 0 0 1 497.0905 833.4353)" class="st5 st2 st3"> </text>
<text transform="matrix(1 0 0 1 501.3905 833.4353)" class="st5 st2 st3">design</text>
<text transform="matrix(1 0 0 1 543.5905 833.4353)" class="st5 st2 st3"> </text>
<text transform="matrix(1 0 0 1 547.8905 833.4353)" class="st5 st2 st3">and  </text>
<text transform="matrix(1 0 0 1 151.8905 851.4353)" class="st5 st2 st3">communication</text>
<text transform="matrix(1 0 0 1 250.9905 851.4353)" class="st5 st2 st3 st7"> </text>
<text transform="matrix(1 0 0 1 259.2905 851.4353)" class="st5 st2 st3">design</text>
<text transform="matrix(1 0 0 1 301.3905 851.4353)" class="st5 st2 st3 st7"> </text>
<text transform="matrix(1 0 0 1 309.6905 851.4353)" class="st5 st2 st3">prize</text>
<text transform="matrix(1 0 0 1 340.5905 851.4353)" class="st5 st2 st3 st7"> </text>
<text transform="matrix(1 0 0 1 348.8905 851.4353)" class="st5 st2 st3">awarded</text>
<text transform="matrix(1 0 0 1 403.7905 851.4353)" class="st5 st2 st3 st7"> </text>
<text transform="matrix(1 0 0 1 412.0905 851.4353)" class="st5 st2 st3">by</text>
<text transform="matrix(1 0 0 1 427.6905 851.4353)" class="st5 st2 st3 st7"> </text>
<text transform="matrix(1 0 0 1 435.9905 851.4353)" class="st5 st2 st3">the</text>
<text transform="matrix(1 0 0 1 456.7905 851.4353)" class="st5 st2 st3 st7"> </text>
<text transform="matrix(1 0 0 1 465.0905 851.4353)" class="st5 st2 st3">Design</text>
<text transform="matrix(1 0 0 1 508.7905 851.4353)" class="st5 st2 st3 st7"> </text>
<text transform="matrix(1 0 0 1 517.0905 851.4353)" class="st5 st2 st3">Zentrum  </text>
<text transform="matrix(1 0 0 1 151.8905 869.4353)" class="st5 st2 st3">Nordrhein</text>
<text transform="matrix(1 0 0 1 215.8905 869.4353)" class="st5 st2 st3"> </text>
<text transform="matrix(1 0 0 1 219.9905 869.4353)" class="st5 st2 st3">Westfalen</text>
<text transform="matrix(1 0 0 1 282.0905 869.4353)" class="st5 st2 st3"> </text>
<text transform="matrix(1 0 0 1 286.0905 869.4353)" class="st5 st2 st3">in</text>
<text transform="matrix(1 0 0 1 297.9905 869.4353)" class="st5 st2 st3"> </text>
<text transform="matrix(1 0 0 1 301.9905 869.4353)" class="st5 st2 st3">Essen,</text>
<text transform="matrix(1 0 0 1 340.1905 869.4353)" class="st5 st2 st3"> </text>
<text transform="matrix(1 0 0 1 344.1905 869.4353)" class="st5 st2 st3">Germany.</text>
<text transform="matrix(1 0 0 1 404.5905 869.4353)" class="st5 st2 st3"> </text>
<text transform="matrix(1 0 0 1 408.5905 869.4353)" class="st5 st2 st3">There</text>
<text transform="matrix(1 0 0 1 444.2905 869.4353)" class="st5 st2 st3"> </text>
<text transform="matrix(1 0 0 1 448.3905 869.4353)" class="st5 st2 st3">are</text>
<text transform="matrix(1 0 0 1 467.9905 869.4353)" class="st5 st2 st3"> </text>
<text transform="matrix(1 0 0 1 472.0905 869.4353)" class="st5 st2 st3">prize</text>
<text transform="matrix(1 0 0 1 502.8905 869.4353)" class="st5 st2 st3"> </text>
<text transform="matrix(1 0 0 1 506.9905 869.4353)" class="st5 st2 st3">categories </text>
<text transform="matrix(1 0 0 1 151.8905 887.4353)" class="st5 st2 st3">for</text>
<text transform="matrix(1 0 0 1 169.3905 887.4353)" class="st5 st2 st3"> </text>
<text transform="matrix(1 0 0 1 175.2905 887.4353)" class="st5 st2 st3">product</text>
<text transform="matrix(1 0 0 1 225.3905 887.4353)" class="st5 st2 st3"> </text>
<text transform="matrix(1 0 0 1 231.2905 887.4353)" class="st5 st2 st3">design,</text>
<text transform="matrix(1 0 0 1 276.4905 887.4353)" class="st5 st2 st3"> </text>
<text transform="matrix(1 0 0 1 282.3905 887.4353)" class="st5 st2 st3">design</text>
<text transform="matrix(1 0 0 1 324.4905 887.4353)" class="st5 st2 st3"> </text>
<text transform="matrix(1 0 0 1 330.3905 887.4353)" class="st5 st2 st3">agencies,</text>
<text transform="matrix(1 0 0 1 388.6905 887.4353)" class="st5 st2 st3"> </text>
<text transform="matrix(1 0 0 1 394.5905 887.4353)" class="st5 st2 st3">and</text>
<text transform="matrix(1 0 0 1 418.5905 887.4353)" class="st5 st2 st3"> </text>
<text transform="matrix(1 0 0 1 424.4905 887.4353)" class="st5 st2 st3">design</text>
<text transform="matrix(1 0 0 1 466.5905 887.4353)" class="st5 st2 st3"> </text>
<text transform="matrix(1 0 0 1 472.4905 887.4353)" class="st5 st2 st3">concepts.</text>
<text transform="matrix(1 0 0 1 532.4905 887.4353)" class="st5 st2 st3"> </text>
<text transform="matrix(1 0 0 1 538.3905 887.4353)" class="st5 st2 st3">Since </text>
<text transform="matrix(1 0 0 1 151.8905 905.4353)" class="st5 st2 st3">1955,</text>
<text transform="matrix(1 0 0 1 185.7905 905.4353)" class="st5 st2 st3"> </text>
<text transform="matrix(1 0 0 1 191.4905 905.4353)" class="st5 st2 st3">designers</text>
<text transform="matrix(1 0 0 1 251.9905 905.4353)" class="st5 st2 st3"> </text>
<text transform="matrix(1 0 0 1 257.6905 905.4353)" class="st5 st2 st3">and</text>
<text transform="matrix(1 0 0 1 281.6905 905.4353)" class="st5 st2 st3"> </text>
<text transform="matrix(1 0 0 1 287.3905 905.4353)" class="st5 st2 st3">producers</text>
<text transform="matrix(1 0 0 1 350.8905 905.4353)" class="st5 st2 st3"> </text>
<text transform="matrix(1 0 0 1 356.5905 905.4353)" class="st5 st2 st3">can</text>
<text transform="matrix(1 0 0 1 378.8905 905.4353)" class="st5 st2 st3"> </text>
<text transform="matrix(1 0 0 1 384.5905 905.4353)" class="st5 st2 st3">apply</text>
<text transform="matrix(1 0 0 1 419.4905 905.4353)" class="st5 st2 st3"> </text>
<text transform="matrix(1 0 0 1 425.1905 905.4353)" class="st5 st2 st3">for</text>
<text transform="matrix(1 0 0 1 442.7905 905.4353)" class="st5 st2 st3"> </text>
<text transform="matrix(1 0 0 1 448.4905 905.4353)" class="st5 st2 st3">the</text>
<text transform="matrix(1 0 0 1 469.2905 905.4353)" class="st5 st2 st3"> </text>
<text transform="matrix(1 0 0 1 474.9905 905.4353)" class="st5 st2 st3">prizes</text>
<text transform="matrix(1 0 0 1 511.7905 905.4353)" class="st5 st2 st3"> </text>
<text transform="matrix(1 0 0 1 517.4905 905.4353)" class="st5 st2 st3">with</text>
<text transform="matrix(1 0 0 1 545.3905 905.4353)" class="st5 st2 st3"> </text>
<text transform="matrix(1 0 0 1 551.0905 905.4353)" class="st5 st2 st3">the  </text>
<text transform="matrix(1 0 0 1 151.8905 923.4353)" class="st5 st2 st3">winners</text>
<text transform="matrix(1 0 0 1 201.4905 923.4353)" class="st5 st2 st3"> </text>
<text transform="matrix(1 0 0 1 204.5905 923.4353)" class="st5 st2 st3">being</text>
<text transform="matrix(1 0 0 1 240.8905 923.4353)" class="st5 st2 st3"> </text>
<text transform="matrix(1 0 0 1 243.9905 923.4353)" class="st5 st2 st3">presented</text>
<text transform="matrix(1 0 0 1 307.6905 923.4353)" class="st5 st2 st3"> </text>
<text transform="matrix(1 0 0 1 310.8905 923.4353)" class="st5 st2 st3">in</text>
<text transform="matrix(1 0 0 1 322.6905 923.4353)" class="st5 st2 st3"> </text>
<text transform="matrix(1 0 0 1 325.7905 923.4353)" class="st5 st2 st3">an</text>
<text transform="matrix(1 0 0 1 341.3905 923.4353)" class="st5 st2 st3"> </text>
<text transform="matrix(1 0 0 1 344.4905 923.4353)" class="st5 st2 st3">annual</text>
<text transform="matrix(1 0 0 1 387.4905 923.4353)" class="st5 st2 st3"> </text>
<text transform="matrix(1 0 0 1 390.5905 923.4353)" class="st5 st2 st3">ceremony.</text>
<text transform="matrix(1 0 0 1 456.4905 923.4353)" class="st5 st2 st3"> </text>
<text transform="matrix(1 0 0 1 459.6905 923.4353)" class="st5 st2 st3">Winning</text>
<text transform="matrix(1 0 0 1 512.6905 923.4353)" class="st5 st2 st3"> </text>
<text transform="matrix(1 0 0 1 515.8905 923.4353)" class="st5 st2 st3">products </text>
<text transform="matrix(1 0 0 1 151.8905 941.4353)" class="st5 st2 st3">are</text>
<text transform="matrix(1 0 0 1 171.4905 941.4353)" class="st5 st2 st3"> </text>
<text transform="matrix(1 0 0 1 174.1905 941.4353)" class="st5 st2 st3">presented</text>
<text transform="matrix(1 0 0 1 237.7905 941.4353)" class="st5 st2 st3"> </text>
<text transform="matrix(1 0 0 1 240.4905 941.4353)" class="st5 st2 st3">in</text>
<text transform="matrix(1 0 0 1 252.2905 941.4353)" class="st5 st2 st3"> </text>
<text transform="matrix(1 0 0 1 254.8905 941.4353)" class="st5 st2 st3">the</text>
<text transform="matrix(1 0 0 1 275.6905 941.4353)" class="st5 st2 st3"> </text>
<text transform="matrix(1 0 0 1 278.2905 941.4353)" class="st5 st2 st3">Red</text>
<text transform="matrix(1 0 0 1 302.3905 941.4353)" class="st5 st2 st3"> </text>
<text transform="matrix(1 0 0 1 304.9905 941.4353)" class="st5 st2 st3">Dot</text>
<text transform="matrix(1 0 0 1 328.1905 941.4353)" class="st5 st2 st3"> </text>
<text transform="matrix(1 0 0 1 330.7905 941.4353)" class="st5 st2 st3">Design</text>
<text transform="matrix(1 0 0 1 374.4905 941.4353)" class="st5 st2 st3"> </text>
<text transform="matrix(1 0 0 1 377.0905 941.4353)" class="st5 st2 st3">Museum</text>
<text transform="matrix(1 0 0 1 431.5905 941.4353)" class="st5 st2 st3"> </text>
<text transform="matrix(1 0 0 1 434.2905 941.4353)" class="st5 st2 st3">on</text>
<text transform="matrix(1 0 0 1 450.7905 941.4353)" class="st5 st2 st3"> </text>
<text transform="matrix(1 0 0 1 453.3905 941.4353)" class="st5 st2 st3">the</text>
<text transform="matrix(1 0 0 1 474.2905 941.4353)" class="st5 st2 st3"> </text>
<text transform="matrix(1 0 0 1 476.8905 941.4353)" class="st5 st2 st3">premises</text>
<text transform="matrix(1 0 0 1 533.1905 941.4353)" class="st5 st2 st3"> </text>
<text transform="matrix(1 0 0 1 535.8905 941.4353)" class="st5 st2 st3">of</text>
<text transform="matrix(1 0 0 1 548.4905 941.4353)" class="st5 st2 st3"> </text>
<text transform="matrix(1 0 0 1 551.0905 941.4353)" class="st5 st2 st3">the </text>
<text transform="matrix(1 0 0 1 151.8905 959.4353)" class="st5 st2 st3">historical</text>
<text transform="matrix(1 0 0 1 208.7905 959.4353)" class="st5 st2 st3"> </text>
<text transform="matrix(1 0 0 1 212.1905 959.4353)" class="st5 st2 st3">Zollverein</text>
<text transform="matrix(1 0 0 1 274.7905 959.4353)" class="st5 st2 st3"> </text>
<text transform="matrix(1 0 0 1 278.1905 959.4353)" class="st5 st2 st3">Coal</text>
<text transform="matrix(1 0 0 1 305.8905 959.4353)" class="st5 st2 st3"> </text>
<text transform="matrix(1 0 0 1 309.3905 959.4353)" class="st5 st2 st3">Mine</text>
<text transform="matrix(1 0 0 1 340.7905 959.4353)" class="st5 st2 st3"> </text>
<text transform="matrix(1 0 0 1 344.1905 959.4353)" class="st5 st2 st3">Industrial</text>
<text transform="matrix(1 0 0 1 402.8905 959.4353)" class="st5 st2 st3"> </text>
<text transform="matrix(1 0 0 1 406.3905 959.4353)" class="st5 st2 st3">Complex</text>
<text transform="matrix(1 0 0 1 462.2905 959.4353)" class="st5 st2 st3"> </text>
<text transform="matrix(1 0 0 1 465.7905 959.4353)" class="st5 st2 st3">in</text>
<text transform="matrix(1 0 0 1 477.5905 959.4353)" class="st5 st2 st3"> </text>
<text transform="matrix(1 0 0 1 480.9905 959.4353)" class="st5 st2 st3">Essen.</text>
<text transform="matrix(1 0 0 1 519.1905 959.4353)" class="st5 st2 st3"> </text>
<text transform="matrix(1 0 0 1 522.6905 959.4353)" class="st5 st2 st3">In</text>
<text transform="matrix(1 0 0 1 534.5905 959.4353)" class="st5 st2 st3"> </text>
<text transform="matrix(1 0 0 1 537.9905 959.4353)" class="st5 st2 st3">2013, </text>
</svg>
