<?xml version="1.0" encoding="utf-8"?>
<!-- Generator: Adobe Illustrator 19.2.1, SVG Export Plug-In . SVG Version: 6.00 Build 0)  -->
<svg version="1.1" id="Lag_1" xmlns="http://www.w3.org/2000/svg" xmlns:xlink="http://www.w3.org/1999/xlink" x="0px" y="0px"
	 width="1168.5px" height="402.4px" viewBox="0 0 1168.5 402.4" style="enable-background:new 0 0 1168.5 402.4;"
	 xml:space="preserve">
<style type="text/css">
	.st0{fill:#8B161A;}
	.st1{filter:url(#Adobe_OpacityMaskFilter);}
	.st2{mask:url(#SVGID_1_);fill:#8B161A;}
	.st3{fill:#5B5E65;}
</style>
<path class="st0" d="M490.3,54h-86.8l-2.4,1.1l-1.2,1l-0.8,0.9c0,0,0.1,1.2,0,1.3c-0.1,0.1,0,1.9,0,1.9l0,0.8l3.2,3.7h74.4l2.8,0.4
	l3.1,1l1.6,0.9l5.5,3.5l4.4,4.4l3,3l2,3.8l0.9,2.8l1.1,3.6v13.1l-1.1,4.2l-2.1,4.5l-4,5.4l-4.9,4.2l-3.1,1.9l-8,3l-3.1,0.5l-104.9,0
	V98.2h95.2l1.9-1.4l1-1.1l0-4.5l-0.6-1.8l-1.6-1.3l-1.1-0.2h-71.3l-2.3-0.1l-2.8-0.9l-2.6-1.1l-2.8-0.9l-1.9-1l-1.6-1.1l-1.3-0.9
	l-1-1.1l-1-1l-1-0.8l-1.1-1l-1.9-2.5l-1.9-2.5l-1-2.1l-1.2-2.4l-1.1-3l-0.9-4.1l-0.1-6.3l1.2-4.7l1-2.8l3-5.8l4.2-5.3l4.8-3.7
	l5.1-3.2l2.4-0.8l3.9-1h2.8H490L490.3,54z"/>
<defs>
	<filter id="Adobe_OpacityMaskFilter" filterUnits="userSpaceOnUse" x="499.9" y="0.8" width="75" height="124.2">
		<feFlood  style="flood-color:white;flood-opacity:1" result="back"/>
		<feBlend  in="SourceGraphic" in2="back" mode="normal"/>
	</filter>
</defs>
<mask maskUnits="userSpaceOnUse" x="499.9" y="0.8" width="75" height="124.2" id="SVGID_1_">
	<g class="st1">
	</g>
</mask>
<path class="st2" d="M499.9,27.8v25.5h21.6h1.1l0.1,49.9l1.3,5.9l4.4,7.5c0,0,3.8,3.3,3.9,3.3c0.1,0,3.1,1.6,3.1,1.6l3,1.2l5.4,1.4
	l3.9,0.6l6,0.3h21.2V98.2H558l-3.4-1.8l-2.1-2.5l-1.4-2l-0.6-1.5V77.4V54.5h24.5v-27H551V0.8h-28.5V27h-22.6V27.8z"/>
<path class="st0" d="M615.9,63.1"/>
<path class="st0" d="M616.7,87.9h88.9V46.5c0,0-3.6-7.6-3.8-7.8s-4.9-5.3-4.9-5.3l-3.5-2.1l-4.6-2.2l-3.6-1.7h-0.9h-77.8l-5.9,2.1
	l-4.1,1.6l-5.6,5.6l-4.3,5.4l-1.1,2.9v3v58.1l2.1,5.8l2.9,4.5l2.6,2.1l4,2.8l5.1,2.4l5.8,0.9l4.9,0.4h62V98.5H620l-2.8-1.8l-1.7-1.9
	v-6.9H616.7z M615.9,58l0.8-0.7L620,55h51.3l2.8,2.9v5.3h-58.1V58z"/>
<rect x="717.8" class="st0" width="29" height="125"/>
<polygon class="st0" points="752.3,54.2 775.7,54.2 775.7,99 778,110.2 782.3,117.5 788,121.5 795.3,124.2 805.5,125 828.8,125 
	828.8,98.7 811.8,98.7 807,95.3 804.8,92 804.8,54.2 828.8,54.2 828.8,27.4 805,27.4 805,0 775.5,0 775.5,27.4 752.3,27.4 "/>
<path class="st0" d="M834.7,13.7"/>
<path class="st0" d="M955.2,42.5l-3-6l-8.6-6.4l-7-2.4h-4.1h-75.3l-2.3,0.5l-5.3,2.6l-4.6,3.6l-3.7,5l-3.3,6.8V105l1.1,3.9l2.9,6
	l5.6,5.2l9.6,4.9h80.5l5.4-2.1l4.1-2.7l3.8-2.8l3.4-4.4l2.7-6.4v-60L955.2,42.5z M927,94.2l-3.1,3.4h-52.1l-4.1-3.1V57.8l3.8-4h50.4
	l5.1,3.3V94.2z"/>
<polygon class="st0" points="971.9,125 1001.1,125 1001.1,59.3 1002.1,56.9 1004.1,54.9 1005.8,53.9 1056.4,53.9 1059.6,56 
	1061,57.6 1061.3,59.3 1061.3,125.3 1091.3,125.3 1091.3,46.3 1089.1,41.3 1086.5,37.3 1084.5,35.3 1083.3,34 1081.8,32.4 
	1079,30.4 1075.9,29.3 1073.7,28.3 1071.1,27.4 1068.6,27.1 992.6,27.1 986.2,29.1 979.8,33.8 976.9,36.8 974,41.3 972.9,43.5 
	972.3,44.8 971.9,47 "/>
<path class="st3" d="M268.8,77.8l4.7-2.1l5.4-1.8l3.6-1.4l9.5-4.6c0,0,2.7-1.8,3-2c0.3-0.2,1.5-1,1.5-1s5.4-4.7,5.4-4.7
	s1.5-1.7,1.8-2.2c0.3-0.5,1.5-2,1.8-2.3s1.2-1.6,1.2-1.6l1.1-1.9l0.5-1l0.9-3.2l0.8-2.7l0.1-5.2v-5.2l-1.6-4l-0.9-2.7l-0.9-1.3
	l-1-0.8l-3.5-3.3c0,0-2.5-1.9-2.7-2c-0.3-0.1-4-1.5-4-1.5l-2.8-1l-2.6-0.1l-6.7-1.9l-7.5-0.5h-18.8l-8,0.8l-13.7,1.6l-6.6,1.4
	l-15,4.5l-5.4,2.2l-17.5,8.4l-1.9,1l-9.1,5.6l-5,3.4c0,0-2.4,1.8-2.5,1.9c-0.1,0.1-8.1,6.4-8.1,6.5c-0.1,0.1-11.7,11.5-11.7,11.5
	l-6.3,7.9l-6.6,11.4l-2.1,4.8l-2.2,8.9v7.8l1.8,8.5l5.3,10c0,0,5.2,5.9,5.5,6c0.3,0.1,8.2,6.2,8.2,6.2l10.5,4.8l10.2,2.7h27.7
	l10.8-2.2l12.6-3.5l6.9-3.5l3.5-2.3c0,0,1.8-0.7,1.8-0.8c0.1,0,4.1,0,4.1,0l2.5,3.6l2,5.5c0,0,0.4,4.8,0.4,5c0,0.2,0,9,0,9
	s-1.8,4.8-2,5.1c-0.2,0.3-7.2,5.3-7.2,5.3s-14.3,6.5-14.5,6.6s-13.7,4.4-13.8,4.5c-0.1,0-16.8,4.5-16.8,4.5l-16.1,3.5l-24.1,7.2
	l-30.8,11l-15.3,7.2L96.9,215l-9.4,6.4l-9.9,8.4l-7.2,7.2l-5.8,6.9l-6.5,9.8l-5.4,10.7l-4.2,9.4l-2.9,11.8l-1.9,14.7v19.7l1.5,12.5
	l4.5,14.4l7.6,13.4l11,12.3l11.3,6.8l12.5,4.5l15.8,1.8h13.3c0,0,13.3-1.7,13.6-1.8s12.9-3,12.9-3l14.1-4.2l13.8-5.6l13.8-7.3
	l11.8-8.1l10.8-8.4l7.2-7.8l9.4-12l6.1-10l4.1-9.6l4.9-17l0.5-11.2v-16.6l-1.8-11.6l-3.3-10.5l-3.9-10.9L232,224l-1.5-2.5l-2-4.3
	l0.6-1.5l3.8-2.4c0,0,5-0.6,5.4-0.6s5.8,2.8,5.8,2.8l7,6.6l8.6,13.6l6,16.1l3.1,15.4v20.3l-2,13.4l-5.8,15.8L250.5,336l-16.2,18.3
	L222,365.2l-11.3,7.6l-21,11.6l-16.3,6.5l-16.8,5.3l-14.5,3.3l-19.3,1.9l-8.9,1.1H88l-12.9-1.9l-7.6-2.3l-7.5-2l-12.8-5.6l-10.4-6.9
	c0,0-9.2-7.1-9.3-7.3c-0.1-0.2-6.8-7.5-6.8-7.5l-3.1-4.3L9.8,353l-5.7-14.3l-3-13L0,317v-18.7l2.1-12L7,269.5l6.8-14.3l6.5-10.5
	l12.9-15.4l16.2-15l13.9-10.1l28.8-16l15.9-7.3l15.3-5.6l17.3-5.4l11.9-3.3l8.2-1.7l-14.7-4.5l-11.8-4.9l-13.4-8.5L109,135.3
	l-7.2-11.9l-3.7-13.5l-0.7-6.2V92.1l2.9-12.9l8.1-15.2l9.6-12.1l12.2-10.7l13.2-9.1l11.9-6.5l18-7.9l27.9-9.2l24.5-5.2L242,1.3
	l10.7-0.7h2.6h30.5l11.8,2.2l14.4,5l9.6,5.7l11.1,10.6c0,0,5.3,9.7,5.3,9.9c0.1,0.1,2.8,10.6,2.8,10.6l0.3,9.4v6.2l-4.1,11.7l-7,9.5
	l-10.6,8.9l-11,5.5l-11,2.9l-11.4,0.1l-8.7-4.1l-5.7-5.5l-2.8-6L268.8,77.8z"/>
<path class="st3" d="M1166.7,186.1l-2.3-0.8l-3.6,0.8l-1.8,1.7l-7.6,10.7l-10.2,13.9l-20.1,25.4l-23,28.7l-21.2,23.8l-19.1,19
	l-12.1,8.6l-5.3,1.6l-4.3-0.4l-3-3l-0.5-4.6l1.4-6.5l4-9.9l8.5-15.3l16.1-24.4c0,0,18.6-25.1,18.7-25.3c0.1-0.2,9.5-14.2,9.5-14.2
	V215l-3.9-3.6c0,0-16.3-6.8-16.3-6.9c0-0.2,2.1-7.1,2.3-7.7c0.2-0.6,0.8-7.7,0.8-7.7v-11.3l-3.1-14.7l-7-9.6l-6.1-4.3l-10.4-3.5
	l-13.6,0.1l-11.6,0.4l-22.6,7.4l-18,10.1l-20.8,15.4l-14.1,14.7l-14.1,17.9l-12.9,20.8l-5.9,7.9l-20.3,25L879,282.7l-21.7,21.7
	l-8.6,7.8c0,0-5.4,3.8-5.8,4s-7.1,2.9-7.1,2.9l-6.9-0.8c0,0-2.7-3.9-2.7-4.5s1.1-5.1,1.1-5.1l2.1-5.8l4.1-8.6l7.1-10.1l17.6-23.6
	L876,236c0,0,12.3-21.5,12.3-21.8c0.1-0.3,9.7-16.2,9.7-16.2l5.1-16.1l0.9-7.3l-0.9-10.9l-2.2-8l-5.5-6.8l-6.9-3.3h-12.9l-9.4,2.3
	l-12.2,6.7c0,0-14.7,10.3-14.9,10.5c-0.2,0.2-17,14.4-17,14.4l-12,12l-15.6,17.6l-20.4,24.1l-1.8,2.2l-0.8,0l0-0.9l1.6-3.4l2.7-5.3
	l5.6-8.8l5.8-11.4l7.1-12.8l5.3-12.7l0.4-7.4v-9.1l-2.9-8.6l-4.4-6.1l-6.1-3.1l-17.7-0.3l-6.6,2.6l-12.6,6.9l-12.3,8.3l-14.2,11.9
	L707.9,191L691,209.1l-19.5,23.6l-2.3,3.2l-1-0.3l0.1-2.2l1.9-3.7l4.9-9.4l6-11.4l7.1-15.3l7.3-24.1l-0.6-8.8l-3.1-6.9l-12.9-8.6
	l-10.3-0.4l-4.9,1.1c0,0-0.6,7.6-0.6,7.8c0,0.2-2.1,8.8-2.1,8.8l-5.3,16.6l-6.5,14.5l-13.3,17.8l-25.4,33.4l-16.8,20.8l-13.6,16
	c0,0-27.7,27.6-27.9,27.9s-4.4,3.9-4.6,4.1s-5.3,3.8-5.3,3.8l-4.8,1.2h-5.3l-3.9-0.9l-1-0.9l-1.1-3.4l0.5-4.4l1.7-4.8l1.6-3.7
	l3.2-6.3l13-18.6l16.3-22l20.2-29l14.6-26.1l6.6-18.3V167l-0.8-4.4l-1.3-3.6l-2.1-4.3l-2.9-4.3l-5.1-3l-5.2-1.6h-9.6l-7.5,1.9
	l-13.2,5.8l-14,9.3l-19.4,16.7l-21.9,21.9l-12.8,15.6l-16.1,18.5l-1,0.3l0.1-1l7.9-14.5l9-15.2l9.3-19.9l2.6-8.2v-9.4l-2-8.9
	l-2.1-4.8l-4.8-5.4l-7.1-3h-9.4l-8.4,1.8l-8.3,3.4l-12.6,8l-14,10.3l-16.1,14.8l-22.2,22.9l-12,14.9l-9.2,11.3l-3.5,2.8l0.6-3.3
	l3.8-6.9l4.2-8.3l6.6-14.4l4.6-10.3l3.5-8.6l2.1-7l1.4-7.5c0,0,0.1-6.6,0-7.4s-1.4-4.2-1.4-4.2l-3.2-5l-5.5-3.8l-10.1-3.7l-10.2,1.1
	l-0.6,5l-2.8,10.3l-3.1,11.8l-10.9,23.5l-3.9,9.9l-10.6,20.2l-17.8,32.9l-19.8,33.4L278.8,320l-7.5,11.9l-0.9,3.4l2.9,4.5
	c0,0,7.5,5.6,7.8,5.8s6.2,2.8,6.2,2.8l6.6-0.4l6.5-5.1l14.2-16.9l12.8-16.6l16.9-22.8l17.6-23.1l17.6-22.6l16.7-20.6l16.9-18.8
	l16.4-17l16.4-12.4l6.7-3.1l6.9-0.1l2.9,4.4l-2.7,10.5l-5.3,11.4l-11.3,18.8L426.9,239l-16.6,24.1l-14.1,21.5l-11.4,20.1l-9.9,17.3
	l-2.5,10.5l1.7,5.6l7.1,6.6l7.9,3.8h5.9l2.8-0.9l7.7-7.4l18.1-21.5l15.8-20.6l20.6-26.5l16.8-22.7l20.1-24.8l19.9-22.8l22.8-21.3
	c0,0,9.8-7.5,10.1-7.7c0.3-0.2,7.5-3,7.7-3s8.5,0.3,8.7,0.4c0.2,0.2,2.2,3.4,2.2,3.4l-1.8,6.2l-6.8,11.1l-15.8,21.5l-16.2,19.8
	l-8.8,13.1L508.3,262l-6.8,12.8l-5.9,13.5c0,0-3.8,8.6-3.9,9s-3.6,16.1-3.6,16.1v15.9l4.1,7.8l7.8,7.7l8.1,3.8l11.9-0.7
	c0,0,8.6-3,8.9-3s15.3-11.7,15.3-11.7l13.4-11.9l14.3-13.9l19.2-21.8l23.8-30.1l7.5-8.8l-1.4,2.8l-11,19.8l-5.4,8.6l-13.3,22.4
	c0,0-16.9,26.4-17.4,27s-3.4,6.6-3.4,6.6l1.3,4.6l4.7,4.3l6.4,3.6l8.4,2.2l5.8-2.6l8.8-10.1l19.3-23.5l21.5-28.2l23.4-29.8
	l23.4-30.3l19.3-21.8l17.6-18l11.9-9.2l10-5.2l8.8,0.1l1.4,4.6l-1.2,6.8l-4.7,10.6l-8.8,15.6l-15.9,24.3l-21.2,32.1l-14.1,20.4
	l-10.3,16.7c0,0-8.8,16.6-9.3,17.5s-2.5,5.5-2.8,6.3s-1.8,6.2-1.8,6.2l1.2,5.6l3,4.2c0,0,3.6,3.4,3.8,3.9s6.2,3,6.5,3.1s5.6,1,5.6,1
	l6.6-1.3l20.4-22.9l22.9-30.7l21.7-27.3l20.3-27.3l19.4-22.6l15.5-17.4l16.5-15.7l14.7-10.6l6.2-3.3l7.7-0.2l3.6,2.8l-1,5.9
	l-5.7,11.3l-8.2,11.1l-10.1,13.3l-7.2,9.4L821.3,242l-20,32.1l-8.5,20.1l-4,17.3v16.8l2.7,7.9l8.9,8.9l7.3,3l7.5,0.5l11.3-2.8
	l18.9-12.8l20.1-19.7l20.8-22.4l17.6-21.1l-1.1,3.8l-2.4,10.6v19.9l1.2,8.8l5.8,12.8l9.2,11.1l11.1,7.9l11.3,3.6h15l13.8-6l10.2-7.3
	c0,0,12.2-13,12.4-13.5s5.1-6.8,5.1-6.8s0.3,2.6,0.3,2.8s0.9,13.1,0.9,13.1l2.1,6.1l5.3,6.6l4.9,3.3l5.3,1.3h12.9
	c0,0,15.4-8.6,15.8-8.8s16.1-13.5,16.1-13.5l14.3-14.9l20.3-21.8l24.5-30.1l20-25.9l23.7-31.9l6.6-8.8c0,0,0.3-3,0.4-3.4
	S1166.7,186.1,1166.7,186.1z M1027.3,253.5l-17,24.4l-15.2,19.8l-12.1,13.7l-14.4,12.6l-10.3,6l-9.9,1l-6.3-1.8l-4.4-6l-2.3-8v-16.3
	l2.9-13.2l3.8-13.6l4.1-9.8l8.5-20.1l15.8-26.5l18.6-23l19.9-15.9l21-8.1c0,0,9.9,0,10.3,0c0.3,0,5.3,2.3,5.3,2.3l4.7,8.7v13
	l-2.2,9.8l-5.6,10.8l-5.1,8.8l-8.5,11.8l-8.4,10.3L1027.3,253.5z"/>
</svg>
